<svg xmlns="http://www.w3.org/2000/svg" width="1200" height="420" viewBox="0 0 1200 420" role="img" aria-labelledby="title desc">
  <title id="title">OpenPaper Skills</title>
  <desc id="desc">An installable catalog of modular agent skills for planning research, managing evidence, running experiments, and communicating results.</desc>
  <rect width="1200" height="420" rx="28" fill="#F4F0E7"/>
  <path d="M0 84H1200M0 336H1200" stroke="#D4CEC0"/>
  <path d="M82 0V420M1118 0V420" stroke="#D4CEC0"/>

  <g transform="translate(82 56)">
    <text x="0" y="0" fill="#315E80" font-family="ui-monospace, SFMono-Regular, Menlo, monospace" font-size="15" font-weight="700" letter-spacing="2">RESEARCH AGENT SKILL CATALOG / 01</text>
    <text x="0" y="82" fill="#171A1D" font-family="-apple-system, BlinkMacSystemFont, Segoe UI, PingFang SC, sans-serif" font-size="68" font-weight="760" letter-spacing="-2">OpenPaper</text>
    <text x="0" y="148" fill="#171A1D" font-family="Georgia, Songti SC, serif" font-size="66" font-style="italic">Skills</text>
    <rect x="0" y="176" width="72" height="5" rx="2.5" fill="#D96C45"/>
    <text x="0" y="220" fill="#4E5357" font-family="-apple-system, BlinkMacSystemFont, Segoe UI, PingFang SC, sans-serif" font-size="22">Install only the research capabilities your agent needs.</text>
    <text x="0" y="254" fill="#4E5357" font-family="-apple-system, BlinkMacSystemFont, Segoe UI, PingFang SC, sans-serif" font-size="22">Plan. Remember. Experiment. Explain. Publish.</text>
    <g transform="translate(0 294)" font-family="ui-monospace, SFMono-Regular, Menlo, monospace" font-size="14" font-weight="700">
      <text x="0" y="0" fill="#171A1D">MAINTAINED CATALOG</text>
      <text x="190" y="0" fill="#868076">PROVENANCE-TRACKED ARCHIVE</text>
    </g>
  </g>

  <g transform="translate(665 48)">
    <path d="M58 76H252M58 177H252M58 278H252" stroke="#A9A294" stroke-width="2" stroke-dasharray="5 7"/>
    <path d="M252 76C300 76 300 177 348 177M252 177H348M252 278C300 278 300 177 348 177" fill="none" stroke="#315E80" stroke-width="3"/>

    <g transform="translate(0 38)">
      <rect width="226" height="76" rx="10" fill="#FFFDF8" stroke="#BDB6A8"/>
      <path d="M0 16H226" stroke="#BDB6A8"/>
      <circle cx="14" cy="8" r="3" fill="#D96C45"/>
      <text x="18" y="45" fill="#171A1D" font-family="ui-monospace, SFMono-Regular, Menlo, monospace" font-size="16" font-weight="700">research-bible/</text>
      <text x="18" y="65" fill="#777168" font-family="ui-monospace, SFMono-Regular, Menlo, monospace" font-size="12">SKILL.md · plan + debug</text>
    </g>
    <g transform="translate(0 139)">
      <rect width="226" height="76" rx="10" fill="#FFFDF8" stroke="#BDB6A8"/>
      <path d="M0 16H226" stroke="#BDB6A8"/>
      <circle cx="14" cy="8" r="3" fill="#315E80"/>
      <text x="18" y="45" fill="#171A1D" font-family="ui-monospace, SFMono-Regular, Menlo, monospace" font-size="16" font-weight="700">paper-wiki-manager/</text>
      <text x="18" y="65" fill="#777168" font-family="ui-monospace, SFMono-Regular, Menlo, monospace" font-size="12">SKILL.md · evidence graph</text>
    </g>
    <g transform="translate(0 240)">
      <rect width="226" height="76" rx="10" fill="#FFFDF8" stroke="#BDB6A8"/>
      <path d="M0 16H226" stroke="#BDB6A8"/>
      <circle cx="14" cy="8" r="3" fill="#D9B44A"/>
      <text x="18" y="45" fill="#171A1D" font-family="ui-monospace, SFMono-Regular, Menlo, monospace" font-size="16" font-weight="700">drawio-paper/</text>
      <text x="18" y="65" fill="#777168" font-family="ui-monospace, SFMono-Regular, Menlo, monospace" font-size="12">SKILL.md · figures + plots</text>
    </g>

    <g transform="translate(348 106)">
      <rect width="105" height="142" rx="14" fill="#171A1D"/>
      <circle cx="52.5" cy="42" r="19" fill="none" stroke="#F4F0E7" stroke-width="2"/>
      <path d="M43 42H62M52.5 32V52" stroke="#F4F0E7" stroke-width="2"/>
      <text x="52.5" y="84" text-anchor="middle" fill="#F4F0E7" font-family="ui-monospace, SFMono-Regular, Menlo, monospace" font-size="13" font-weight="700">YOUR</text>
      <text x="52.5" y="102" text-anchor="middle" fill="#F4F0E7" font-family="ui-monospace, SFMono-Regular, Menlo, monospace" font-size="13" font-weight="700">AGENT</text>
      <path d="M28 118H77" stroke="#D96C45" stroke-width="3"/>
    </g>
  </g>
</svg>
